<svg
   width="100"
   height="100"
   fill="currentColor"
   stroke="currentColor"
   viewBox="0 0 86.864471 53.988426"
   version="1.1"
   id="svg1"
   xmlns="http://www.w3.org/2000/svg"
   xmlns:svg="http://www.w3.org/2000/svg">
  <defs
     id="defs1" />
  <g
     id="layer1"
     transform="translate(-32.829714,-28.972077)">
    <path
       id="rect1"
       style="fill:#0000ff;fill-opacity:1;stroke:#000000;stroke-width:0.79375;stroke-dasharray:none;stroke-opacity:1"
       d="m 40.43339,29.368952 a 7.610198,7.610198 0 0 1 -7.206801,7.062618 v 13.206946 a 7.610198,7.610198 0 0 1 3.38222,6.327783 7.610198,7.610198 0 0 1 -3.38222,6.32777 v 14.02033 a 7.610198,7.610198 0 0 1 5.754691,6.24923 h 73.87714 a 7.610198,7.610198 0 0 1 6.43889,-7.19646 v -12.55169 a 7.610198,7.610198 0 0 1 -4.2938,-6.84918 7.610198,7.610198 0 0 1 4.2938,-6.849198 V 36.218146 a 7.610198,7.610198 0 0 1 -0.37311,0.0088 7.610198,7.610198 0 0 1 -7.57318,-6.857979 z m 29.043193,7.387663 h 4.26278 l 6.98149,14.687992 1.49913,0.316777 v 0.856278 h -8.77465 v -0.856278 l 2.27789,-0.316777 -1.88102,-4.071069 h -7.56956 l -1.80816,4.071069 2.52853,0.316777 v 0.856278 h -5.99705 v -0.856278 l 1.46967,-0.316777 z M 43.32882,36.885289 h 19.151803 v 4.399732 h -1.35237 l -0.39688,-2.921269 C 59.91807,38.222972 58.31118,38.152395 55.91048,38.152395 h -0.72037 v 13.292212 l 3.13056,0.316777 v 0.856278 h -10.9058 v -0.856278 l 3.13056,-0.316777 V 38.129141 h -0.74931 c -2.24392,0 -3.82176,0.07819 -4.73304,0.234611 l -0.39688,2.921269 h -1.33738 z m 39.626003,0 h 7.7463 l 5.62911,10.347689 5.746937,-10.347689 h 7.90753 v 0.856795 l -2.52801,0.304891 v 13.397632 l 2.52801,0.316777 v 0.856278 h -9.80354 v -0.856278 l 2.64583,-0.316777 V 39.32545 l -7.422797,13.292212 h -0.80822 L 87.320453,39.32545 v 12.119157 l 2.64531,0.316777 v 0.856278 h -7.01094 v -0.856278 l 2.52801,-0.316777 V 38.046975 l -2.52801,-0.304891 z m -12.83126,2.241207 -3.24838,6.956681 h 6.4084 z m 6.49677,18.178223 h 3.23339 v 10.30014 h 1.96991 v 2.40502 h -1.96991 v 3.10885 h -3.95376 v -3.10885 h -8.15713 v -1.91203 z m -0.5731,3.15588 -5.86475,7.14426 h 5.71748 v -4.6576 c 0,-0.87597 0.0493,-1.70456 0.14727,-2.48666 z" />
  </g>
</svg>
